<svg xmlns="http://www.w3.org/2000/svg" xmlns:xlink="http://www.w3.org/1999/xlink" width="40" height="40" viewBox="0 0 40 40"><defs><clipPath id="a"><rect width="40" height="40" fill="#fff"/></clipPath></defs><g clip-path="url(#a)"><path d="M14.427,32.161q-.417.078-.365.39t.469.208q.417-.1.365-.365Q14.844,32.109,14.427,32.161Z" fill="#272e40"/><path d="M12.943,32.37c-.278,0-.417.095-.417.286q0,.339.443.286.417,0,.417-.286Q13.386,32.318,12.943,32.37Z" fill="#272e40"/><path d="M10.912,32.291q-.1.287.339.391.391.156.495-.156.078-.286-.339-.417C11.146,32.04,10.981,32.1,10.912,32.291Z" fill="#272e40"/><path d="M37.8,2.2A7.224,7.224,0,0,0,32.5,0H7.5A7.225,7.225,0,0,0,2.2,2.2,7.225,7.225,0,0,0,0,7.5v25a7.224,7.224,0,0,0,2.2,5.3A7.225,7.225,0,0,0,7.5,40h5.833a7.05,7.05,0,0,0,.859-.039,1.008,1.008,0,0,0,.573-.339,1.213,1.213,0,0,0,.286-.872q0-.078-.013-1.771T15.025,34.3l-.6.1a7.663,7.663,0,0,1-1.445.091,11.116,11.116,0,0,1-1.81-.182,4.056,4.056,0,0,1-1.745-.781,3.305,3.305,0,0,1-1.146-1.6l-.26-.6A6.5,6.5,0,0,0,7.2,30a3.143,3.143,0,0,0-1.133-.99l-.182-.13a1.918,1.918,0,0,1-.338-.313,1.446,1.446,0,0,1-.234-.365q-.078-.183.13-.3a1.693,1.693,0,0,1,.755-.117l.521.078a3.8,3.8,0,0,1,1.289.625A4.2,4.2,0,0,1,9.27,29.843a4.589,4.589,0,0,0,1.445,1.628,3.064,3.064,0,0,0,1.706.56,7.4,7.4,0,0,0,1.484-.13,5.186,5.186,0,0,0,1.172-.391,4.221,4.221,0,0,1,1.276-2.683,17.826,17.826,0,0,1-2.669-.469,10.639,10.639,0,0,1-2.448-1.016A7.007,7.007,0,0,1,9.14,25.6a8.389,8.389,0,0,1-1.367-2.734,13.006,13.006,0,0,1-.534-3.906A7.6,7.6,0,0,1,9.3,13.592,7,7,0,0,1,9.479,8.28a3.649,3.649,0,0,1,2.24.352,15.711,15.711,0,0,1,2.175,1q.69.416,1.107.7a18.8,18.8,0,0,1,10,0l.99-.625a14.013,14.013,0,0,1,2.4-1.146A3.411,3.411,0,0,1,30.5,8.28a6.933,6.933,0,0,1,.208,5.312,7.6,7.6,0,0,1,2.058,5.365,13.127,13.127,0,0,1-.534,3.919,8.045,8.045,0,0,1-1.38,2.735,7.283,7.283,0,0,1-2.109,1.732,10.629,10.629,0,0,1-2.448,1.015,17.815,17.815,0,0,1-2.669.469,4.639,4.639,0,0,1,1.354,3.7v6.224a1.677,1.677,0,0,0,.13.716.72.72,0,0,0,.417.378,2.313,2.313,0,0,0,.508.13,5.85,5.85,0,0,0,.638.026H32.5A7.513,7.513,0,0,0,40,32.5V7.5A7.225,7.225,0,0,0,37.8,2.2Z" fill="#272e40"/><path d="M7.917,29.115q-.182.13.052.416.261.26.417.078.182-.13-.052-.417Q8.073,28.958,7.917,29.115Z" fill="#272e40"/><path d="M7.058,28.463q-.078.183.182.313a.222.222,0,0,0,.338-.052q.078-.183-.182-.313Q7.136,28.333,7.058,28.463Z" fill="#272e40"/><path d="M8.724,30.13q-.235.13,0,.469t.443.182q.235-.182,0-.495C9.028,30.061,8.88,30.008,8.724,30.13Z" fill="#272e40"/><path d="M9.636,31.3c-.156.139-.122.3.1.5q.312.312.521.077.208-.208-.1-.494Q9.844,31.068,9.636,31.3Z" fill="#272e40"/></g></svg>