<svg xmlns="http://www.w3.org/2000/svg" width="40" height="40" viewBox="0 0 40 40"><path d="M23.645,17.158a3.2,3.2,0,0,0-2.9,1.6V17.387H17.516c.042.909,0,9.7,0,9.7H20.74V21.668a2.173,2.173,0,0,1,.105-.787A1.766,1.766,0,0,1,22.5,19.7c1.167,0,1.633.889,1.633,2.194v5.19h3.225V21.522C27.357,18.544,25.766,17.158,23.645,17.158Zm-2.907,1.635h-.02a.234.234,0,0,0,.02-.033Z" fill="#272e40"/><path d="M15.729,17.387H12.505v9.7h3.224Z" fill="#272e40"/><path d="M20,0A20,20,0,1,0,40,20,20.023,20.023,0,0,0,20,0ZM30.606,29.046a1.558,1.558,0,0,1-1.578,1.539H10.836A1.558,1.558,0,0,1,9.26,29.046v-18.4A1.558,1.558,0,0,1,10.836,9.1H29.028a1.559,1.559,0,0,1,1.578,1.539Z" fill="#272e40"/><path d="M14.139,12.71a1.68,1.68,0,1,0-.043,3.351h.021a1.681,1.681,0,1,0,.022-3.351Z" fill="#272e40"/></svg>